<svg width="613" height="253" viewBox="0 0 613 253" fill="none" xmlns="http://www.w3.org/2000/svg" aria-hidden="true">
  <path d="M133.203 53.6494V186.495C133.203 204.112 126.186 221.007 113.696 233.464C101.206 245.921 84.2653 252.918 66.6016 252.918C48.938 252.918 31.9979 245.92 19.5078 233.464C7.01762 221.007 0 204.112 0 186.495H33.3008C33.3008 195.303 36.8096 203.751 43.0547 209.979C49.2997 216.208 57.7697 219.707 66.6016 219.707C75.4334 219.707 83.9034 216.208 90.1484 209.979C96.3935 203.751 99.9023 195.303 99.9023 186.495V177.554C89.786 183.409 78.2979 186.493 66.6016 186.495C48.938 186.495 31.9979 179.497 19.5078 167.041C7.01762 154.584 0 137.689 0 120.072C0.000115864 102.456 7.01772 85.5611 19.5078 73.1045C31.9979 60.648 48.938 53.6495 66.6016 53.6494C78.2979 53.6515 89.786 56.737 99.9023 62.5918V53.6494H133.203ZM286.898 186.495H253.598V177.554C243.481 183.409 231.993 186.493 220.297 186.495C202.633 186.495 185.692 179.498 173.202 167.041C160.712 154.584 153.695 137.689 153.695 120.072C153.695 102.456 160.712 85.5611 173.202 73.1045C185.692 60.6478 202.633 53.6494 220.297 53.6494C231.993 53.6515 243.481 56.737 253.598 62.5918V53.6494H286.898V186.495ZM340.922 62.4248C350.986 56.6648 362.389 53.639 373.992 53.6494C391.656 53.6495 408.596 60.6478 421.086 73.1045C433.576 85.5612 440.594 102.456 440.594 120.072C440.594 137.689 433.576 154.583 421.086 167.04C408.596 179.497 391.656 186.495 373.992 186.495C362.389 186.506 350.986 183.48 340.922 177.72V186.495H307.621V125.425C307.48 123.662 307.391 121.873 307.391 120.072C307.391 118.271 307.48 116.482 307.621 114.72V0H340.922V62.4248ZM494.388 186.495H461.087V53.6494H494.388V186.495ZM580.2 53.6494H612.221V86.8604H580.2V150.729C580.2 152.084 580.74 153.384 581.701 154.342C582.662 155.3 583.965 155.838 585.323 155.838H612.221V186.495H579.022C574.804 186.495 570.627 185.667 566.729 184.057C562.832 182.447 559.291 180.087 556.309 177.112C553.326 174.137 550.959 170.606 549.345 166.719C547.73 162.832 546.899 158.666 546.899 154.459V86.8604H514.88V53.6494H546.899V0H580.2V53.6494ZM66.6016 86.8613C57.7697 86.8614 49.2997 90.3606 43.0547 96.5889C36.8097 102.817 33.3009 111.264 33.3008 120.072C33.3008 128.88 36.8096 137.328 43.0547 143.557C49.2997 149.785 57.7697 153.284 66.6016 153.284C75.4334 153.284 83.9034 149.785 90.1484 143.557C96.3935 137.328 99.9023 128.88 99.9023 120.072C99.9022 111.264 96.3934 102.817 90.1484 96.5889C83.9034 90.3606 75.4334 86.8613 66.6016 86.8613ZM220.297 86.8613C211.465 86.8613 202.995 90.3605 196.75 96.5889C190.505 102.817 186.996 111.264 186.996 120.072C186.996 128.88 190.505 137.328 196.75 143.557C202.995 149.785 211.465 153.284 220.297 153.284C229.129 153.284 237.599 149.785 243.844 143.557C250.089 137.328 253.598 128.88 253.598 120.072C253.598 111.264 250.089 102.817 243.844 96.5889C237.599 90.3605 229.129 86.8613 220.297 86.8613ZM375.917 86.9844C367.444 86.4952 359.104 89.2512 352.6 94.6885C346.096 100.126 341.919 107.835 340.922 116.24V123.904C341.919 132.31 346.096 140.019 352.6 145.456C359.104 150.893 367.444 153.648 375.917 153.159C384.389 152.67 392.355 148.974 398.187 142.824C404.018 136.675 407.275 128.536 407.293 120.072C407.275 111.608 404.018 103.47 398.187 97.3203C392.355 91.1709 384.389 87.4736 375.917 86.9844ZM494.388 33.2119H461.087V0H494.388V33.2119Z" fill="url(#gabitCoverGradient)"/>
  <defs>
    <linearGradient id="gabitCoverGradient" x1="609.964" y1="180.656" x2="2.17485" y2="32.7422" gradientUnits="userSpaceOnUse">
      <stop stop-color="#92D600"/>
      <stop offset="1" stop-color="#08D482"/>
    </linearGradient>
  </defs>
</svg>
