<svg width="16" height="16" viewBox="0 0 16 16" fill="none" xmlns="http://www.w3.org/2000/svg">
<path d="M12.5 11.5V7C12.5 6.66667 12.3 6 11.5 6C10.7 6 10.5 6.66667 10.5 7V9C9.5 9 7.5 9.7 7.5 12.5" stroke="#0F0E0E" stroke-width="0.5" stroke-linecap="round"/>
<path d="M10.5 7.5V2.75C10.5 2.33579 10.1642 2 9.75 2V2C9.33579 2 9 2.33579 9 2.75V7.5" stroke="#0F0E0E" stroke-width="0.5" stroke-linecap="round"/>
<path d="M9 8V2C9 1.44772 8.55228 1 8 1V1C7.44772 1 7 1.44772 7 2V8" stroke="#0F0E0E" stroke-width="0.5" stroke-linecap="round"/>
<path d="M7 8V3C7 2.44772 6.55228 2 6 2V2C5.44772 2 5 2.44772 5 3V8" stroke="#0F0E0E" stroke-width="0.5" stroke-linecap="round"/>
<path d="M5 10V5C5 4.44772 4.55228 4 4 4V4C3.44772 4 3 4.44772 3 5V10C3 11.6667 3.5 15 7.5 15C11.5 15 12.5 13 12.5 11.5" stroke="#0F0E0E" stroke-width="0.5" stroke-linecap="round"/>
</svg>
